<svg xmlns="http://www.w3.org/2000/svg" width="88" height="26" focusable="false" viewBox="0 0 88 26">
  <path fill="currentColor" d="M57.885 16.423a4.301 4.301 0 003.056-1.187l1.51 1.634a5.965 5.965 0 01-4.545 1.794c-3.699 0-6.087-2.451-6.087-5.773a5.661 5.661 0 015.752-5.774c3.672 0 5.751 2.794 5.573 6.67h-8.67a3.128 3.128 0 003.415 2.636m2.645-4.482a2.77 2.77 0 00-2.927-2.608 2.984 2.984 0 00-3.134 2.608zM.9 16.302l6.681-6.786H1.056V7.387h9.619V9.56l-6.68 6.786h6.77v2.129H.9v-2.173zm17.365.121a4.301 4.301 0 003.056-1.187l1.51 1.634a5.965 5.965 0 01-4.546 1.794c-3.698 0-6.086-2.451-6.086-5.773a5.661 5.661 0 015.751-5.774c3.673 0 5.752 2.794 5.574 6.67H14.85a3.128 3.128 0 003.415 2.636m2.644-4.48a2.77 2.77 0 00-2.927-2.608 2.984 2.984 0 00-3.133 2.607zm17.044.954a5.538 5.538 0 015.566-5.764 4.8 4.8 0 013.697 1.665V2.252h2.362v16.194h-2.362v-1.534a4.743 4.743 0 01-3.719 1.752 5.589 5.589 0 01-5.544-5.764m9.398-.022a3.517 3.517 0 10-7.032-.004 3.52 3.52 0 107.037 0M64.69 16.09l2.136-1.108a3.173 3.173 0 002.85 1.618c1.337 0 2.028-.686 2.028-1.463 0-.887-1.292-1.087-2.694-1.372-1.893-.402-3.851-1.024-3.851-3.308 0-1.752 1.67-3.372 4.298-3.348a5.086 5.086 0 014.477 2.15l-1.982 1.087a2.876 2.876 0 00-2.494-1.264c-1.27 0-1.921.622-1.921 1.331 0 .799 1.024 1.02 2.628 1.373 1.825.399 3.896.997 3.896 3.304 0 1.53-1.335 3.593-4.498 3.568a5.211 5.211 0 01-4.876-2.573m15.789-2.567l-1.871 2.04v2.884h-2.36V2.252h2.36v10.6l5.011-5.5h2.872l-4.342 4.747 4.453 6.343h-2.672l-3.451-4.924zM30.82 7.128c-2.807 0-5.157 1.818-5.157 4.835v6.477h2.406v-6.175a2.63 2.63 0 012.827-2.907c1.781 0 2.673 1.088 2.673 2.907v6.175h2.406v-6.477c0-3.02-2.35-4.835-5.156-4.835"/>
</svg>
